<svg width="89" height="82" viewBox="0 0 89 82" fill="none" xmlns="http://www.w3.org/2000/svg">
<path d="M58 21L31 21" stroke="#67BC93" stroke-width="5"/>
<path d="M56.1645 61.554H32.6577" stroke="#67BC93" stroke-width="5"/>
<path d="M54 63L68 40" stroke="#67BC93" stroke-width="5"/>
<path d="M20.7837 41.1665L33 20" stroke="#67BC93" stroke-width="5"/>
<path d="M68 42L56 20" stroke="#67BC93" stroke-width="5"/>
<path d="M35 63.0002L21 39.0002" stroke="#67BC93" stroke-width="5"/>
<g filter="url(#filter0_f_308_400)">
<path d="M58.8166 20.8083L30.729 20.8083" stroke="#67BC93" stroke-width="10"/>
<path d="M58.2138 61.5537H30.6084" stroke="#67BC93" stroke-width="10"/>
<path d="M55.6825 62.3975L68.9427 39.7345" stroke="#67BC93" stroke-width="10"/>
<path d="M20.7838 41.1658L33.0194 19.0001" stroke="#67BC93" stroke-width="10"/>
<path d="M69.6659 42.6277L55.0797 19.2414" stroke="#67BC93" stroke-width="10"/>
<path d="M33.7424 63.0002L20 39.614" stroke="#67BC93" stroke-width="10"/>
</g>
<g filter="url(#filter1_f_308_400)">
<path d="M58.8166 20.8083L30.729 20.8083" stroke="#67BC93" stroke-width="5"/>
<path d="M58.2138 61.5537H30.6084" stroke="#67BC93" stroke-width="5"/>
<path d="M55.6825 62.3975L68.9427 39.7345" stroke="#67BC93" stroke-width="5"/>
<path d="M20.7838 41.1658L33.0194 19.0001" stroke="#67BC93" stroke-width="5"/>
<path d="M69.6659 42.6277L55.0797 19.2414" stroke="#67BC93" stroke-width="5"/>
<path d="M33.7424 63.0002L20 39.614" stroke="#67BC93" stroke-width="5"/>
</g>
<defs>
<filter id="filter0_f_308_400" x="0.689178" y="0.80835" width="88.2192" height="80.7454" filterUnits="userSpaceOnUse" color-interpolation-filters="sRGB">
<feFlood flood-opacity="0" result="BackgroundImageFix"/>
<feBlend mode="normal" in="SourceGraphic" in2="BackgroundImageFix" result="shape"/>
<feGaussianBlur stdDeviation="7.5" result="effect1_foregroundBlur_308_400"/>
</filter>
<filter id="filter1_f_308_400" x="7.8446" y="7.79199" width="73.9425" height="66.4749" filterUnits="userSpaceOnUse" color-interpolation-filters="sRGB">
<feFlood flood-opacity="0" result="BackgroundImageFix"/>
<feBlend mode="normal" in="SourceGraphic" in2="BackgroundImageFix" result="shape"/>
<feGaussianBlur stdDeviation="5" result="effect1_foregroundBlur_308_400"/>
</filter>
</defs>
</svg>
