<svg width="94" height="179" viewBox="0 0 94 179" fill="none" xmlns="http://www.w3.org/2000/svg">
<g clip-path="url(#clip0_361_179)">
<mask id="mask0_361_179" style="mask-type:alpha" maskUnits="userSpaceOnUse" x="-6" y="0" width="100" height="190">
<rect x="-6" width="100" height="190" fill="#D9D9D9"/>
</mask>
<g mask="url(#mask0_361_179)">
<path d="M57.7685 24.8359H133.632" stroke="white" stroke-width="5"/>
<path d="M57.5724 156.332H133.435" stroke="white" stroke-width="5"/>
<path d="M57.7685 156.283L19.837 90.5839" stroke="white" stroke-width="5"/>
<path d="M19.8362 90.5354L57.7677 24.8361" stroke="white" stroke-width="5"/>
<g filter="url(#filter0_f_361_179)">
<path d="M49.0139 24.8357L139.66 24.8357" stroke="white" stroke-width="10"/>
<path d="M50.9584 156.331H140.049" stroke="white" stroke-width="10"/>
<path d="M59.1289 159.055L16.3344 85.915" stroke="white" stroke-width="10"/>
<path d="M14 95.252L61.074 19.778" stroke="white" stroke-width="10"/>
</g>
<g filter="url(#filter1_f_361_179)">
<path d="M49.0139 24.8357L139.66 24.8357" stroke="white" stroke-width="5"/>
<path d="M50.9584 156.331H140.049" stroke="white" stroke-width="5"/>
<path d="M59.1289 159.055L16.3344 85.915" stroke="white" stroke-width="5"/>
<path d="M14 95.252L61.074 19.778" stroke="white" stroke-width="5"/>
</g>
</g>
</g>
<defs>
<filter id="filter0_f_361_179" x="-5.24243" y="1.5835" width="198.838" height="176.95" filterUnits="userSpaceOnUse" color-interpolation-filters="sRGB">
<feFlood flood-opacity="0" result="BackgroundImageFix"/>
<feBlend mode="normal" in="SourceGraphic" in2="BackgroundImageFix" result="shape"/>
<feGaussianBlur stdDeviation="7.5" result="effect1_foregroundBlur_361_179"/>
</filter>
<filter id="filter1_f_361_179" x="1.87878" y="7.7915" width="184.562" height="164.475" filterUnits="userSpaceOnUse" color-interpolation-filters="sRGB">
<feFlood flood-opacity="0" result="BackgroundImageFix"/>
<feBlend mode="normal" in="SourceGraphic" in2="BackgroundImageFix" result="shape"/>
<feGaussianBlur stdDeviation="5" result="effect1_foregroundBlur_361_179"/>
</filter>
<clipPath id="clip0_361_179">
<rect width="94" height="179" fill="white"/>
</clipPath>
</defs>
</svg>
