<svg width="31" height="31" viewBox="0 0 31 31" fill="none" xmlns="http://www.w3.org/2000/svg">
<g clip-path="url(#clip0_747_1529)">
<circle cx="15.5" cy="15.5" r="15.5" fill="#D9D9D9"/>
<circle cx="15.5" cy="15.5" r="15.5" fill="#67BC93"/>
<path d="M22.3209 24.4001H9.45187C7.67354 24.4001 6.2207 22.9784 6.2207 21.2381V8.64444C6.2207 6.90416 7.67354 5.48242 9.45187 5.48242H22.3209C24.0993 5.48242 25.5521 6.90416 25.5521 8.64444V21.2381C25.5521 22.9862 24.1072 24.4001 22.3209 24.4001Z" fill="#1E1E1E"/>
<path d="M15.8906 19.8012C14.5648 19.8012 13.3183 19.2962 12.3815 18.3795C11.4447 17.4627 10.9287 16.243 10.9287 14.9455C10.9287 13.6481 11.4447 12.4283 12.3815 11.5116C13.3183 10.5948 14.5648 10.0898 15.8906 10.0898C17.2164 10.0898 18.4628 10.5948 19.3996 11.5116C20.3364 12.4283 20.8524 13.6481 20.8524 14.9455C20.8524 16.243 20.3364 17.4627 19.3996 18.3795C18.4549 19.2962 17.2164 19.8012 15.8906 19.8012ZM15.8906 11.1231C13.7391 11.1231 11.9846 12.8323 11.9846 14.9455C11.9846 17.0509 13.7312 18.7679 15.8906 18.7679C18.042 18.7679 19.7965 17.0587 19.7965 14.9455C19.7886 12.8401 18.042 11.1231 15.8906 11.1231Z" fill="#67BC93"/>
<path d="M21.8194 9.93006C22.3456 9.93006 22.7721 9.51265 22.7721 8.99774C22.7721 8.48284 22.3456 8.06543 21.8194 8.06543C21.2932 8.06543 20.8667 8.48284 20.8667 8.99774C20.8667 9.51265 21.2932 9.93006 21.8194 9.93006Z" fill="#67BC93"/>
</g>
<defs>
<clipPath id="clip0_747_1529">
<rect width="31" height="31" fill="white"/>
</clipPath>
</defs>
</svg>
