<svg width="89" height="82" viewBox="0 0 89 82" fill="none" xmlns="http://www.w3.org/2000/svg">
<path d="M57.3342 21L30.3342 21" stroke="white" stroke-width="5"/>
<path d="M55.4987 61.554H31.9919" stroke="white" stroke-width="5"/>
<path d="M53.3342 63L67.3342 40" stroke="white" stroke-width="5"/>
<path d="M20.1179 41.1665L32.3342 20" stroke="white" stroke-width="5"/>
<path d="M67.3342 42L55.3342 20" stroke="white" stroke-width="5"/>
<path d="M34.3342 63.0002L20.3342 39.0002" stroke="white" stroke-width="5"/>
<g filter="url(#filter0_f_308_472)">
<path d="M58.1508 20.8083L30.0632 20.8083" stroke="white" stroke-width="10"/>
<path d="M57.5479 61.5537H29.9425" stroke="white" stroke-width="10"/>
<path d="M55.0166 62.3975L68.2769 39.7345" stroke="white" stroke-width="10"/>
<path d="M20.118 41.1658L32.3536 19.0001" stroke="white" stroke-width="10"/>
<path d="M69.0001 42.6277L54.4138 19.2414" stroke="white" stroke-width="10"/>
<path d="M33.0766 63.0002L19.3342 39.614" stroke="white" stroke-width="10"/>
</g>
<g filter="url(#filter1_f_308_472)">
<path d="M58.1508 20.8083L30.0632 20.8083" stroke="white" stroke-width="5"/>
<path d="M57.5479 61.5537H29.9425" stroke="white" stroke-width="5"/>
<path d="M55.0166 62.3975L68.2769 39.7345" stroke="white" stroke-width="5"/>
<path d="M20.118 41.1658L32.3536 19.0001" stroke="white" stroke-width="5"/>
<path d="M69.0001 42.6277L54.4138 19.2414" stroke="white" stroke-width="5"/>
<path d="M33.0766 63.0002L19.3342 39.614" stroke="white" stroke-width="5"/>
</g>
<defs>
<filter id="filter0_f_308_472" x="0.0233459" y="0.80835" width="88.2192" height="80.7454" filterUnits="userSpaceOnUse" color-interpolation-filters="sRGB">
<feFlood flood-opacity="0" result="BackgroundImageFix"/>
<feBlend mode="normal" in="SourceGraphic" in2="BackgroundImageFix" result="shape"/>
<feGaussianBlur stdDeviation="7.5" result="effect1_foregroundBlur_308_472"/>
</filter>
<filter id="filter1_f_308_472" x="7.17877" y="7.79199" width="73.9425" height="66.4749" filterUnits="userSpaceOnUse" color-interpolation-filters="sRGB">
<feFlood flood-opacity="0" result="BackgroundImageFix"/>
<feBlend mode="normal" in="SourceGraphic" in2="BackgroundImageFix" result="shape"/>
<feGaussianBlur stdDeviation="5" result="effect1_foregroundBlur_308_472"/>
</filter>
</defs>
</svg>
