<svg width="754" height="124" viewBox="0 0 754 124" fill="none" xmlns="http://www.w3.org/2000/svg">
<g clip-path="url(#clip0_69_13)">
<path d="M93.6025 77.5986C99.0382 64.0772 101.221 56.3136 98.6037 41.1059L132.802 41.5986C134.736 55.6269 132.515 63.5152 127.103 77.5986H93.6025Z" fill="white"/>
<path fill-rule="evenodd" clip-rule="evenodd" d="M133.145 48.2275C133.145 62.2282 129.465 75.1497 122.104 86.9922C114.744 98.8346 105.309 107.91 93.7988 114.219C86.8262 117.982 79.5492 120.5 71.9678 121.772C64.3864 122.99 55.3109 123.599 44.7412 123.599H0L28.5547 0H68.5645C80.3516 0 89.8421 0.913086 97.0361 2.73926C104.23 4.56543 110.041 7.02799 114.468 10.127C120.555 14.3327 125.176 19.5898 128.33 25.8984C131.54 32.1517 133.145 39.5947 133.145 48.2275ZM99.7754 51.1328C99.7754 45.4883 98.724 40.6462 96.6211 36.6064C94.5182 32.5114 91.3086 29.2188 86.9922 26.7285C85 25.6217 82.9525 24.7917 80.8496 24.2383C78.8021 23.6296 76.4502 23.1868 73.7939 22.9102C71.2484 22.6888 68.3431 22.5781 65.0781 22.5781H56.5283H55.4492L37.1875 100.938H40.0928H50.3857C54.0381 100.938 56.9987 100.799 59.2676 100.522C62.2005 100.246 64.8291 99.8031 67.1533 99.1943C69.5329 98.5856 72.1338 97.5619 74.9561 96.123C82.9248 92.028 89.0397 85.9131 93.3008 77.7783C97.6172 69.6436 99.7754 60.7617 99.7754 51.1328ZM265.293 31.1279C265.293 41.0335 262.277 49.362 256.245 56.1133C251.185 61.7766 244.607 66.2717 236.51 69.5986H230.603L231.675 71.3866C231.675 71.3866 231.675 71.3867 231.675 71.3867L260.229 123.599H224.619L203.079 81.595L203.103 81.5986L201.603 78.0986L197.103 69.5986H185.103L183.373 78.5986L183.373 78.5987L172.988 123.599H141.113L169.668 0H217.896C233.003 0 244.679 2.57324 252.925 7.71973C261.17 12.8109 265.293 20.6136 265.293 31.1279ZM230.928 36.4404C230.928 31.46 229.323 27.946 226.113 25.8984C222.959 23.7956 218.283 22.7441 212.085 22.7441H196.313L188.594 56.0303H204.282C212.749 56.0303 219.307 54.3148 223.955 50.8838C228.604 47.3975 230.928 42.583 230.928 36.4404ZM340.996 123.599H268.613L273.677 101.685H293.848L312.275 21.9141H292.104L297.168 0H369.551L364.487 21.9141H344.316L325.889 101.685H346.06L340.996 123.599ZM507.593 0L433.965 123.599H398.271L381.753 0H414.375L424.253 88.2373L473.477 0H507.593ZM614.839 0L609.443 23.4082H551.753L546.606 45.4883H600.146L594.668 68.9795H541.128L533.906 100.19H591.597L586.284 123.599H496.719L525.273 0H614.839ZM725.488 123.599H698.345L662.07 38.0176L642.314 123.599H612.93L641.484 0H677.178L708.223 71.5527L724.658 0H754.043L725.488 123.599Z" fill="white"/>
<path d="M17.9116 44.5986H743.731L737.743 70.5986H12.1025L17.9116 44.5986Z" fill="#67BC93"/>
<path d="M93.1025 78.0986C98.5391 64.575 101.222 56.8112 98.6024 41.5986L132.869 42.0952C134.803 56.1235 132.075 64.0118 126.662 78.0952L93.1025 78.0986Z" fill="white"/>
<path d="M696.532 44.5986H664.864L675.88 70.5986H707.81L696.532 44.5986Z" fill="white"/>
<path d="M191.259 44.5986H159.367L153.342 70.5986H184.913L191.259 44.5986Z" fill="white"/>
<path d="M339.075 44.5986H307.036L301.032 70.5986H333.071L339.075 44.5986Z" fill="white"/>
<path d="M465.542 70.5986H434.103L448.603 44.5986H481.018L465.542 70.5986Z" fill="white"/>
</g>
<defs>
<clipPath id="clip0_69_13">
<rect width="754" height="124" fill="white"/>
</clipPath>
</defs>
</svg>
