<svg width="25" height="25" viewBox="0 0 25 25" fill="none" xmlns="http://www.w3.org/2000/svg">
<g clip-path="url(#clip0_270_205)">
<path d="M20.8214 24.465H4.17865C1.87885 24.465 0 22.6264 0 20.3758V4.08923C0 1.83865 1.87885 0 4.17865 0H20.8214C23.1211 0 25 1.83865 25 4.08923V20.3758C25 22.6364 23.1314 24.465 20.8214 24.465Z" fill="black"/>
<path d="M12.505 18.5171C10.7904 18.5171 9.17848 17.864 7.96698 16.6784C6.75548 15.4928 6.08813 13.9154 6.08813 12.2375C6.08813 10.5596 6.75548 8.98223 7.96698 7.79665C9.17848 6.61108 10.7904 5.95801 12.505 5.95801C14.2196 5.95801 15.8315 6.61108 17.043 7.79665C18.2545 8.98223 18.9218 10.5596 18.9218 12.2375C18.9218 13.9154 18.2545 15.4928 17.043 16.6784C15.8212 17.864 14.2196 18.5171 12.505 18.5171ZM12.505 7.29429C9.72263 7.29429 7.45364 9.50468 7.45364 12.2375C7.45364 14.9603 9.71236 17.1808 12.505 17.1808C15.2873 17.1808 17.5563 14.9704 17.5563 12.2375C17.546 9.51473 15.2873 7.29429 12.505 7.29429Z" fill="white"/>
<path d="M20.1725 5.75173C20.8529 5.75173 21.4046 5.21192 21.4046 4.54603C21.4046 3.88014 20.8529 3.34033 20.1725 3.34033C19.492 3.34033 18.9404 3.88014 18.9404 4.54603C18.9404 5.21192 19.492 5.75173 20.1725 5.75173Z" fill="white"/>
</g>
<defs>
<clipPath id="clip0_270_205">
<rect width="25" height="24.47" fill="white"/>
</clipPath>
</defs>
</svg>
