<svg width="25" height="24" viewBox="0 0 25 24" fill="none" xmlns="http://www.w3.org/2000/svg">
<g clip-path="url(#clip0_270_209)">
<path d="M5.64529 6.92725H0.421387V23.2295H5.64529V6.92725Z" fill="black"/>
<path d="M19.7762 6.57395C19.5836 6.55039 19.379 6.53861 19.1744 6.52683C16.2495 6.40904 14.6005 8.10523 14.0227 8.83553C13.8663 9.03577 13.794 9.15356 13.794 9.15356V6.97444H8.79883V23.2767H13.794H14.0227C14.0227 21.6158 14.0227 19.9667 14.0227 18.3059C14.0227 17.4107 14.0227 16.5155 14.0227 15.6203C14.0227 14.513 13.9385 13.3351 14.5042 12.3221C14.9857 11.474 15.8523 11.05 16.8273 11.05C19.7161 11.05 19.7762 13.606 19.7762 13.8416C19.7762 13.8534 19.7762 13.8652 19.7762 13.8652V23.3473H25.0001V12.7108C25.0001 9.07111 23.1104 6.92732 19.7762 6.57395Z" fill="black"/>
<path d="M3.03323 5.93665C4.70843 5.93665 6.06647 4.60768 6.06647 2.96832C6.06647 1.32896 4.70843 0 3.03323 0C1.35802 0 0 1.32896 0 2.96832C0 4.60768 1.35802 5.93665 3.03323 5.93665Z" fill="black"/>
</g>
<defs>
<clipPath id="clip0_270_209">
<rect width="25" height="23.35" fill="white"/>
</clipPath>
</defs>
</svg>
