<svg width="25" height="23" viewBox="0 0 25 23" fill="none" xmlns="http://www.w3.org/2000/svg">
<g clip-path="url(#clip0_269_196)">
<path d="M0 18.8626C2.69105 19.0155 5.04427 18.3806 7.33924 16.6993C5.02097 16.2995 3.41333 15.2296 2.53961 13.0192C3.21529 12.9251 3.80942 13.1015 4.5084 12.8193C2.22508 11.8082 0.745576 10.2915 0.687328 7.66958C1.4096 7.72837 1.95714 8.21042 2.81921 8.13988C0.722283 6.07057 0.081547 3.81315 1.39795 1.07368C3.58807 3.61328 6.15099 5.34162 9.28473 6.15288C9.45947 6.19991 9.62255 6.24694 9.7973 6.28221C10.6011 6.47033 11.5564 6.87008 12.0457 6.81129C12.8844 6.70547 12.0457 5.72961 12.2554 4.45981C12.9194 0.509323 17.2297 -1.28956 20.4217 1.02665C21.3537 1.70858 22.0876 1.69682 23.0079 1.28531C23.4856 1.07368 23.9748 0.862045 24.5457 0.615139C24.4175 1.74385 23.5555 2.36699 22.8681 3.20177C23.6487 3.37813 24.2777 3.15474 25 2.91959C24.7554 3.73085 24.1496 4.18939 23.6021 4.63617C23.0312 5.09471 22.8099 5.57676 22.7866 6.32924C22.4371 17.7222 9.61091 26.5285 0.838778 19.521C-0.0116411 18.8391 0.815471 19.521 0 18.8626Z" fill="black"/>
</g>
<defs>
<clipPath id="clip0_269_196">
<rect width="25" height="22.02" fill="white"/>
</clipPath>
</defs>
</svg>
